<!DOCTYPE svg PUBLIC "-//W3C//DTD SVG 1.1//EN" "http://www.w3.org/Graphics/SVG/1.1/DTD/svg11.dtd">
<!-- Uploaded to: SVG Repo, www.svgrepo.com, Transformed by: SVG Repo Mixer Tools -->
<svg fill="#ffffff" height="800px" width="800px" version="1.1" id="Layer_1" xmlns="http://www.w3.org/2000/svg" xmlns:xlink="http://www.w3.org/1999/xlink" viewBox="0 0 512.009 512.009" xml:space="preserve" stroke="#ffffff">
<g id="SVGRepo_bgCarrier" stroke-width="0"/>
<g id="SVGRepo_tracerCarrier" stroke-linecap="round" stroke-linejoin="round"/>
<g id="SVGRepo_iconCarrier"> <g> <g> <g> <path d="M281.602,192.006h-85.333c-3.183,0-6.101,1.766-7.569,4.591c-1.468,2.825-1.246,6.221,0.58,8.832l59.733,85.333 c1.596,2.287,4.207,3.644,6.989,3.644h93.867c3.285,0,6.272-1.886,7.697-4.838c1.417-2.953,1.016-6.46-1.032-9.028 l-68.267-85.333C286.654,193.175,284.196,192.006,281.602,192.006z"/> <path d="M503.475,448.004h-8.533v-17.067c0-0.137-0.077-0.247-0.085-0.384c-0.026-0.563-0.188-1.092-0.333-1.655 c-0.136-0.563-0.247-1.126-0.495-1.638c-0.06-0.12-0.051-0.247-0.111-0.367l-59.733-110.933c-0.085-0.154-0.23-0.239-0.316-0.384 c-0.213-0.35-0.375-0.717-0.64-1.041l-128-153.6c-1.621-1.937-4.028-3.063-6.554-3.063h-179.2c-0.068,0-0.119,0.026-0.179,0.026 c-0.077,0-0.145-0.017-0.213-0.017c-0.469,0.017-0.913,0.137-1.365,0.239c-0.222,0.043-0.444,0.043-0.657,0.111 c-0.708,0.205-1.382,0.503-2.014,0.879c-0.128,0.077-0.23,0.196-0.35,0.282c-0.486,0.333-0.956,0.683-1.365,1.109 c-0.179,0.188-0.307,0.41-0.469,0.614c-0.256,0.316-0.529,0.597-0.734,0.947L1.195,349.794C0.41,351.108,0,352.61,0,354.138 v102.4c0,4.719,3.823,8.533,8.533,8.533h157.15h0.009h64.717h196.267c4.71,0,8.533-3.814,8.533-8.533v-34.133h-76.8 c-4.719,0-8.533-3.814-8.533-8.533c0-4.719,3.814-8.533,8.533-8.533h76.8v-17.067h-51.2c-4.719,0-8.533-3.814-8.533-8.533 s3.814-8.533,8.533-8.533h51.2v-17.357l42.667,79.232v14.925h-8.533c-4.719,0-8.533,3.814-8.533,8.533 c0,4.719,3.814,8.533,8.533,8.533h34.133c4.71,0,8.533-3.814,8.533-8.533C512.009,451.819,508.186,448.004,503.475,448.004z M82.603,447.842l35.857-123.034l35.857,123.17L82.603,447.842z M221.875,448.004h-44.928l17.519-62.447 c5.393-20.258-1.596-41.924-17.886-55.253l-52.77-42.359c-0.222-0.179-0.495-0.222-0.734-0.375 c-0.486-0.324-0.981-0.572-1.519-0.785c-0.503-0.196-0.981-0.35-1.502-0.452c-0.555-0.102-1.092-0.137-1.655-0.137 c-0.529,0.009-1.033,0.043-1.553,0.145c-0.546,0.102-1.05,0.273-1.57,0.486c-0.521,0.213-0.998,0.461-1.468,0.777 c-0.239,0.154-0.521,0.205-0.742,0.393l-52.318,42.846c-15.505,15.07-20.489,38.665-17.271,54.716l16.648,62.447H17.067v-91.537 l103.117-174.498l101.692,140.8V448.004z M234.769,311.471l-98.611-136.533h158.515l113.775,136.533H234.769z"/> <path d="M8.538,98.138c14.114,0,25.6,11.486,25.6,25.6c0,4.719,3.823,8.533,8.533,8.533c4.71,0,8.533-3.814,8.533-8.533 c0-14.114,11.486-25.6,25.6-25.6c4.71,0,8.533-3.814,8.533-8.533s-3.823-8.533-8.533-8.533c-14.114,0-25.6-11.486-25.6-25.6 c0-4.719-3.823-8.533-8.533-8.533c-4.71,0-8.533,3.814-8.533,8.533c0,14.114-11.486,25.6-25.6,25.6 c-4.71,0-8.533,3.814-8.533,8.533S3.827,98.138,8.538,98.138z M42.671,81.045c2.432,3.243,5.325,6.127,8.559,8.559 c-3.234,2.432-6.127,5.316-8.559,8.559c-2.432-3.243-5.325-6.127-8.559-8.559C37.346,87.172,40.239,84.288,42.671,81.045z"/> <path d="M366.938,132.271c18.825,0,34.133,15.309,34.133,34.133c0,4.719,3.823,8.533,8.533,8.533s8.533-3.814,8.533-8.533 c0-23.526,19.14-42.667,42.667-42.667c4.71,0,8.533-3.814,8.533-8.533s-3.823-8.533-8.533-8.533 c-22.272,0-41.702,12.279-51.968,30.396c-9.276-13.201-24.585-21.862-41.899-21.862c-4.71,0-8.533,3.814-8.533,8.533 S362.227,132.271,366.938,132.271z"/> </g> </g> </g> </g>
</svg>